# Blender v2.77 (sub 0) OBJ File: ''
# www.blender.org
mtllib cubes.mtl
o Cube.002
v -2.740775 1.130137 -0.849271
v -2.740775 1.130137 1.150729
v -4.740775 1.130137 1.150729
v -4.740774 1.130137 -0.849272
v -2.740774 3.130137 -0.849271
v -2.740775 3.130137 1.150729
v -4.740775 3.130137 1.150728
v -4.740775 3.130137 -0.849271
v 1.000000 -1.000000 -1.000000
v 1.000000 -1.000000 1.000000
v -1.000000 -1.000000 1.000000
v -1.000000 -1.000000 -1.000000
v 1.000000 1.000000 -1.000000
v 0.999999 1.000000 1.000000
v -1.000000 1.000000 1.000000
v -1.000000 1.000000 -1.000000
v 2.784599 1.660461 -4.362504
v 2.784599 1.660461 -2.362504
v 0.784599 1.660461 -2.362505
v 0.784599 1.660461 -4.362505
v 2.784599 3.660461 -4.362504
v 2.784598 3.660461 -2.362504
v 0.784598 3.660461 -2.362505
v 0.784599 3.660461 -4.362504
vn 0.0000 -1.0000 0.0000
vn 0.0000 1.0000 -0.0000
vn 1.0000 -0.0000 0.0000
vn -0.0000 -0.0000 1.0000
vn -1.0000 -0.0000 -0.0000
vn 0.0000 0.0000 -1.0000
usemtl Material.002
s off
f 18//1 20//1 17//1
f 24//2 22//2 21//2
f 21//3 18//3 17//3
f 22//4 19//4 18//4
f 23//5 20//5 19//5
f 17//6 24//6 21//6
f 18//1 19//1 20//1
f 24//2 23//2 22//2
f 21//3 22//3 18//3
f 22//4 23//4 19//4
f 23//5 24//5 20//5
f 17//6 20//6 24//6
usemtl Material
f 2//1 4//1 1//1
f 8//2 6//2 5//2
f 5//3 2//3 1//3
f 6//4 3//4 2//4
f 7//5 4//5 3//5
f 1//6 8//6 5//6
f 2//1 3//1 4//1
f 8//2 7//2 6//2
f 5//3 6//3 2//3
f 6//4 7//4 3//4
f 7//5 8//5 4//5
f 1//6 4//6 8//6
usemtl Material.001
f 10//1 12//1 9//1
f 16//2 14//2 13//2
f 13//3 10//3 9//3
f 14//4 11//4 10//4
f 15//5 12//5 11//5
f 9//6 16//6 13//6
f 10//1 11//1 12//1
f 16//2 15//2 14//2
f 13//3 14//3 10//3
f 14//4 15//4 11//4
f 15//5 16//5 12//5
f 9//6 12//6 16//6
