# Blender v2.77 (sub 0) OBJ File: ''
# www.blender.org
mtllib demo2.mtl
o Cube.001
v 1.000000 -1.000000 -1.000000
v 1.000000 -1.000000 1.000000
v -1.000000 -1.000000 1.000000
v -1.000000 -1.000000 -1.000000
v 1.000000 1.000000 -1.000000
v 0.999999 1.000000 1.000000
v -1.000000 1.000000 1.000000
v -1.000000 1.000000 -1.000000
v 1.937645 0.113729 -4.495661
v 1.937645 0.113729 -2.495661
v -0.062356 0.113729 -2.495661
v -0.062355 0.113729 -4.495661
v 1.937645 2.113729 -4.495660
v 1.937644 2.113729 -2.495660
v -0.062356 2.113729 -2.495661
v -0.062355 2.113729 -4.495661
vn 0.0000 -1.0000 -0.0000
vn 0.0000 1.0000 0.0000
vn 1.0000 -0.0000 0.0000
vn -0.0000 -0.0000 1.0000
vn -1.0000 -0.0000 -0.0000
vn 0.0000 0.0000 -1.0000
usemtl Material.001
s off
f 9//1 11//1 12//1
f 16//2 14//2 13//2
f 13//3 10//3 9//3
f 14//4 11//4 10//4
f 11//5 16//5 12//5
f 9//6 16//6 13//6
f 9//1 10//1 11//1
f 16//2 15//2 14//2
f 13//3 14//3 10//3
f 14//4 15//4 11//4
f 11//5 15//5 16//5
f 9//6 12//6 16//6
usemtl Material
f 2//1 4//1 1//1
f 8//2 6//2 5//2
f 5//3 2//3 1//3
f 6//4 3//4 2//4
f 7//5 4//5 3//5
f 1//6 8//6 5//6
f 2//1 3//1 4//1
f 8//2 7//2 6//2
f 5//3 6//3 2//3
f 6//4 7//4 3//4
f 7//5 8//5 4//5
f 1//6 4//6 8//6
